<svg xmlns="http://www.w3.org/2000/svg" data-name="Layer 1" viewBox="0 0 24 24">
  <path d="m20.5 4.2-6-3.5a5 5 0 0 0-5 0l-6 3.5A5 5 0 0 0 1 8.5v7a5 5 0 0 0 2.5 4.3l6 3.5a5 5 0 0 0 5 0l6-3.5a5 5 0 0 0 2.5-4.3v-7a5 5 0 0 0-2.5-4.3Zm-10-1.7a3 3 0 0 1 3 0l6 3.4a3 3 0 0 1 .5.4l-6.2 3.6a3.5 3.5 0 0 1-3.6 0L4 6.3a3 3 0 0 1 .5-.4ZM4.5 18A3 3 0 0 1 3 15.5v-7A2.9 2.9 0 0 1 3 8l6.2 3.6a5.5 5.5 0 0 0 1.8.6v9.6a2.9 2.9 0 0 1-.5-.2ZM21 15.5a3 3 0 0 1-1.5 2.6l-6 3.5a2.9 2.9 0 0 1-.5.2v-9.6a5.5 5.5 0 0 0 1.8-.6L21 8a2.9 2.9 0 0 1 0 .5Z"/>
</svg>