<svg xmlns="http://www.w3.org/2000/svg" fill="none" viewBox="0 0 24 24">
  <g fill="#000" clip-path="url(#a)">
    <path d="M21 12.4V11a9 9 0 1 0-18 0v1.4A5 5 0 0 0 5 22a2 2 0 0 0 2-2v-6a2 2 0 0 0-2-2v-1a7 7 0 0 1 14 0v1a2 2 0 0 0-2 2v6a2 2 0 0 0 2 2 5 5 0 0 0 2-9.6ZM5 20a3 3 0 0 1 0-6v6Zm14 0v-6a3 3 0 0 1 0 6Z"/>
    <path fill-rule="evenodd" d="M.3.3a1 1 0 0 1 1.4 0l22 22a1 1 0 0 1-1.4 1.4l-22-22A1 1 0 0 1 .3.3Z" clip-rule="evenodd"/>
  </g>
  <defs>
    <clipPath id="a">
      <path fill="#fff" d="M0 0h24v24H0z"/>
    </clipPath>
  </defs>
</svg>