<svg xmlns="http://www.w3.org/2000/svg" viewBox="0 0 24 24">
  <path fill-rule="evenodd" d="M20.4 2.4H3.6c-.7 0-1.2.5-1.2 1.2v16.8c0 .7.5 1.2 1.2 1.2h16.8c.7 0 1.2-.5 1.2-1.2V3.6c0-.7-.5-1.2-1.2-1.2ZM3.6 0C1.6 0 0 1.6 0 3.6v16.8c0 2 1.6 3.6 3.6 3.6h16.8c2 0 3.6-1.6 3.6-3.6V3.6c0-2-1.6-3.6-3.6-3.6H3.6Z" clip-rule="evenodd"/>
  <path fill-rule="evenodd" d="M8.5 22V2h1v20h-1Zm6 0V2h1v20h-1Z" clip-rule="evenodd"/>
  <path d="M7 2.2C7 1.5 7.6 1 8.3 1h1.4c.7 0 1.3.5 1.3 1.2v10.6c0 .7-.6 1.2-1.3 1.2H8.3c-.7 0-1.3-.5-1.3-1.2V2.2Zm6 0c0-.7.6-1.2 1.3-1.2h1.4c.7 0 1.3.5 1.3 1.2v10.6c0 .7-.6 1.2-1.3 1.2h-1.4c-.7 0-1.3-.5-1.3-1.2V2.2Z"/>
</svg>