<svg xmlns="http://www.w3.org/2000/svg" viewBox="0 0 24 24">
    <path d="M12 24c3 0 5.8-1.1 8-3v2a1 1 0 0 0 2 0v-3a3 3 0 0 0-3-3h-3a1 1 0 0 0 0 2h3.1a10 10 0 0 1-16.8-4.7L.7 16A12 12 0 0 0 12 24ZM7.3 3.2A10 10 0 0 1 22 12a1 1 0 0 0 2 0A12 12 0 0 0 2.8 4.3l1.4 1.4c.9-1 1.9-1.9 3.1-2.5Z"/>
    <path d="M12 0a12 12 0 0 0-8 3V1a1 1 0 0 0-2 0v3a3 3 0 0 0 3 3h3a1 1 0 0 0 0-2H4.9a10 10 0 0 1 16.6 4l.5 2 1.8-1A12 12 0 0 0 12 0Zm4.7 20.8A10 10 0 0 1 2 12a1 1 0 1 0-2 0 12 12 0 0 0 21.2 7.7l-1.4-1.4a10 10 0 0 1-3.1 2.5Z"/>
</svg>