<svg xmlns="http://www.w3.org/2000/svg" viewBox="0 0 24 24">
  <path d="M20.8 4.3a1 1 0 0 0-1.4 1.4 9 9 0 0 1 0 12.6 1 1 0 0 0 1.4 1.4 11 11 0 0 0 0-15.4Z"/>
  <path d="M18.1 7.3a1 1 0 0 0-1.4 1.4 4.7 4.7 0 0 1 0 6.6 1 1 0 0 0 1.4 1.4 6.7 6.7 0 0 0 0-9.4ZM13.8.2A12 12 0 0 0 6.3 5H5a5 5 0 0 0-5 5v4a5 5 0 0 0 5 5h1.3a12 12 0 0 0 7.5 4.8 1 1 0 0 0 .2 0 1 1 0 0 0 1-1V1.2a1 1 0 0 0-1.2-1ZM13 21.5a10 10 0 0 1-5.4-4 1 1 0 0 0-.8-.5H5a3 3 0 0 1-3-3v-4a3 3 0 0 1 3-3h1.8a1 1 0 0 0 .8-.5 10 10 0 0 1 5.4-4Z"/>
</svg>