<svg xmlns="http://www.w3.org/2000/svg" xml:space="preserve" viewBox="0 0 512 512">
  <path d="M490.7 96a32 32 0 0 0-32-32H378a95.9 95.9 0 0 0-90-64h-64a95.9 95.9 0 0 0-90.1 64H53.3a32 32 0 0 0 0 64H64v266.7C64 459.5 116.5 512 181.3 512h149.4c64.8 0 117.3-52.5 117.3-117.3V128h10.7a32 32 0 0 0 32-32zM384 394.7a53.3 53.3 0 0 1-53.3 53.3H181.3a53.3 53.3 0 0 1-53.3-53.3V128h256v266.7z"/>
  <path d="M202.7 384a32 32 0 0 0 32-32V224a32 32 0 0 0-64 0v128a32 32 0 0 0 32 32zm106.6 0a32 32 0 0 0 32-32V224a32 32 0 0 0-64 0v128a32 32 0 0 0 32 32z"/>
</svg>